<?xml version="1.0" standalone="no"?>
<!DOCTYPE svg PUBLIC "-//W3C//DTD SVG 20010904//EN"
 "http://www.w3.org/TR/2001/REC-SVG-20010904/DTD/svg10.dtd">
<svg version="1.0" xmlns="http://www.w3.org/2000/svg"
 width="1024.000000pt" height="1024.000000pt" viewBox="0 0 1024.000000 1024.000000"
 preserveAspectRatio="xMidYMid meet">
<metadata>
Created by potrace 1.11, written by Peter Selinger 2001-2013
</metadata>
<g transform="translate(0.000000,1024.000000) scale(0.100000,-0.100000)"
fill="#000000" stroke="none">
<path d="M1367 9404 c-1 -1 -54 -5 -117 -8 -63 -4 -126 -9 -140 -11 -14 -2
-47 -7 -75 -10 -27 -3 -57 -7 -65 -10 -8 -2 -33 -6 -55 -9 -33 -4 -115 -20
-257 -51 -141 -31 -400 -121 -578 -202 -86 -39 -86 -39 -25 -91 72 -63 347
-341 415 -421 348 -406 525 -731 606 -1106 12 -56 12 -300 0 -347 -9 -36 -30
-65 -105 -144 -138 -146 -307 -367 -396 -519 -64 -108 -77 -134 -130 -242 -72
-147 -165 -398 -180 -488 -3 -16 -10 -43 -15 -60 -5 -16 -11 -47 -14 -67 -3
-21 -10 -57 -15 -80 -5 -24 -13 -74 -17 -113 -4 -38 -8 -83 -10 -100 -5 -45
-5 -376 0 -405 2 -14 7 -52 10 -85 24 -249 119 -570 241 -815 150 -302 291
-507 529 -764 50 -54 95 -108 100 -120 13 -32 12 -322 -3 -391 -48 -234 -166
-493 -335 -738 -34 -49 -68 -99 -76 -111 -84 -127 -438 -509 -605 -653 l-60
-52 95 -44 c262 -122 586 -216 905 -262 22 -4 50 -8 63 -10 124 -20 573 -27
752 -12 52 5 97 10 100 12 3 1 32 6 65 10 33 3 90 13 127 21 37 7 82 16 100
19 18 3 76 17 128 31 52 14 104 27 116 29 12 3 79 25 150 50 71 25 134 47 139
49 6 1 23 8 38 14 16 7 30 12 32 12 2 0 36 15 77 34 40 18 90 41 110 49 120
50 461 272 644 420 114 91 139 112 212 178 25 23 39 29 60 25 34 -7 98 -17
137 -21 17 -2 62 -8 100 -14 39 -5 97 -13 130 -16 33 -4 71 -8 85 -10 14 -2
61 -7 105 -10 44 -3 94 -8 110 -10 166 -22 882 -22 1085 0 19 2 71 7 115 10
44 3 94 8 110 10 17 2 51 7 78 10 106 12 145 17 207 26 36 6 83 13 105 16 33
4 118 20 365 69 277 54 826 226 1058 330 29 13 54 24 57 24 6 0 164 74 270
126 711 349 1282 842 1632 1408 159 257 298 595 338 825 3 19 7 37 9 40 2 3 7
31 11 61 4 30 8 57 10 60 2 3 6 37 10 75 4 39 9 81 11 95 5 37 5 336 0 400 -6
77 -15 155 -27 222 -18 104 -24 133 -39 188 -7 25 -13 52 -15 60 -2 8 -17 59
-35 113 -174 543 -558 1067 -1080 1476 -118 93 -125 98 -166 127 -263 186
-598 374 -889 499 -60 25 -124 53 -140 60 -66 30 -430 160 -475 170 -8 2 -35
10 -60 18 -74 25 -323 90 -422 111 -274 58 -379 78 -478 91 -25 3 -56 8 -70
10 -14 3 -43 7 -65 10 -64 6 -148 16 -174 20 -12 2 -60 7 -105 10 -44 4 -92 8
-106 11 -154 24 -911 24 -1160 0 -19 -2 -66 -7 -105 -10 -77 -7 -129 -13 -190
-21 -22 -3 -60 -7 -85 -10 -40 -5 -199 -29 -257 -40 -14 -2 -32 6 -50 23 -140
134 -424 347 -628 472 -383 234 -899 406 -1365 454 -138 15 -483 28 -493 20z"/>
</g>
</svg>
