<svg version="1" xmlns="http://www.w3.org/2000/svg" width="533.333" height="533.333" viewBox="0 0 400.000000 400.000000"><path d="M37.5 34C27.2 35.6 10 40.9 3.1 44.5L.2 45.9l10.7 10.8c20.7 21 31.2 40.3 31.3 57.5v7.8l-5.5 5.9c-15.7 17-26.3 39.5-28.8 60.8-2.7 24.5 3.1 47 18.1 69.2 3.2 4.7 8.1 10.8 10.8 13.6 3.9 4 5 5.9 5.5 9.3 2.3 17.3-10.3 41.3-33.9 64.6l-8.6 8.5 3.8 1.6c7.3 3 17.9 6.4 27.4 8.6 13.8 3.3 40.3 3.4 54 .1 9-2.2 19.1-5.2 23.5-7.1 10.6-4.6 24.5-12.5 25.3-14.4.2-.4.8-.7 1.3-.7s4.5-2.9 8.9-6.5c6.1-5.1 8.4-6.5 10.2-6.1 6.2 1.4 34 3.6 45.8 3.6 21.8 0 51.7-3.8 71.5-9 7.6-2.1 25-8.2 31-11 3.3-1.5 8.3-3.8 11-5.1 4.2-1.9 9.7-5 18.7-10.4 15.5-9.3 34.4-27.6 43.5-41.9 13.5-21.3 19-43.8 16.4-66.9-4.5-39-33-74.4-77.6-96.5-22-10.9-30.7-13.9-61.5-20.7-20.9-4.6-62.6-6-86.8-2.9-6.8.9-13.3 1.3-14.5 1-1.2-.3-4.2-2.4-6.7-4.7-2.5-2.2-6.9-5.7-9.8-7.7-15.5-10.6-27.3-16-45.7-20.9-8.7-2.2-12.3-2.6-28.5-2.9-10.2-.1-20.7.1-23.5.6zm199.4 63c31.9 5.1 55.2 13.2 78.6 27.4 17.3 10.4 33.8 27.2 40.9 41.6 1.5 3 3.4 6.6 4.1 8 2.6 5.3 4.9 17.6 4.9 26.5-.1 29.2-19.8 57.6-53.5 77.1-23.9 13.8-39 19-72.9 25-13 2.4-17.1 2.6-39 2.6-22.1 0-26-.2-40-2.7-8.5-1.5-15.9-2.9-16.3-3.2-.5-.3-3.8 2.6-7.5 6.4-5.6 5.7-9.9 9.6-16.7 15.1-6.7 5.4-22.4 14.3-31 17.4C81 341 66.4 344 60.4 344c-5.4 0-15.4-1.7-15.4-2.7 0-.3 2.5-3.3 5.5-6.6 5.5-6.3 13.6-19.6 16.6-27.4 3.2-8.2 5.3-19.8 5.3-29.4l.1-9.7-9.1-8.8c-10-9.8-15.7-17.1-19.9-25.5-1.5-3-3.3-6.5-4-7.9-2.5-5-4.9-17.6-4.9-26 0-8.4 2.4-21 4.9-26 .7-1.4 2.6-5 4.1-8 5.1-10.5 15.3-22.5 26.8-31.6C97.8 112.7 136 98.8 179 95c14.6-1.3 43.5-.3 57.9 2z"/><path d="M116.7 182.5c-5.7 2.2-9.2 5-12.1 9.9-5.5 9.4-2.3 23 6.7 29.3 3.6 2.5 4.9 2.8 12.3 2.8 7.6 0 8.5-.2 12.6-3.1 6.4-4.6 8.8-9.4 8.8-17.7 0-7.1-1.4-11.2-5.4-15.5-5.2-5.8-15.8-8.4-22.9-5.7zM193.4 182.4c-6.1 1.9-10.2 5.4-12.9 11.2-4.3 9-2.6 19.1 4.3 25.6 4.3 4.1 8.7 5.8 15.2 5.8s10.9-1.7 15.2-5.8c12.3-11.7 6.8-32.7-9.7-37.1-5-1.4-6.9-1.3-12.1.3zM271 181.9c-11 3.5-16 10.4-16 21.8 0 8.3 2.4 13.1 8.8 17.7 4.1 2.9 5 3.1 12.6 3.1 7.4 0 8.7-.3 12.3-2.8 5.9-4.1 9.3-10.9 9.3-18.8 0-5.6-.4-7.1-3.2-11.4-5.1-7.6-16.1-12.1-23.8-9.6z"/></svg>