<?xml version="1.0" standalone="no"?>
<!DOCTYPE svg PUBLIC "-//W3C//DTD SVG 20010904//EN"
 "http://www.w3.org/TR/2001/REC-SVG-20010904/DTD/svg10.dtd">
<svg version="1.0" xmlns="http://www.w3.org/2000/svg"
 width="512.000000pt" height="512.000000pt" viewBox="0 0 512.000000 512.000000"
 preserveAspectRatio="xMidYMid meet">
<metadata>
Created by potrace 1.11, written by Peter Selinger 2001-2013
</metadata>
<g transform="translate(0.000000,512.000000) scale(0.100000,-0.100000)"
fill="#000000" stroke="none">
<path d="M476 4684 c-146 -23 -395 -99 -465 -143 -11 -7 6 -29 74 -93 164
-155 303 -338 381 -503 56 -117 77 -207 72 -311 l-3 -81 -57 -61 c-211 -228
-338 -490 -377 -775 -50 -363 89 -771 361 -1062 l73 -78 3 -83 c10 -225 -122
-474 -400 -759 -75 -77 -136 -140 -135 -141 1 -1 25 -13 52 -27 135 -67 354
-121 557 -138 288 -25 608 34 873 161 101 48 293 176 390 259 39 34 77 59 85
56 118 -35 684 -57 922 -35 718 65 1331 326 1728 736 265 274 398 562 416 899
45 857 -800 1583 -2026 1740 -269 35 -679 30 -958 -11 l-102 -15 -59 52 c-254
223 -555 364 -886 414 -124 19 -397 18 -519 -1z m2341 -785 c718 -58 1332
-339 1648 -754 215 -282 264 -611 137 -923 -214 -524 -898 -913 -1745 -993
-276 -25 -698 -2 -962 55 l-71 15 -119 -117 c-225 -219 -449 -354 -704 -424
-60 -17 -107 -21 -226 -22 -88 -1 -157 3 -168 9 -16 10 -13 16 26 62 69 81
111 142 161 234 96 179 136 336 136 537 l0 115 -109 103 c-259 247 -371 477
-371 764 0 277 108 509 347 741 441 429 1231 663 2020 598z"/>
<path d="M1486 2784 c-68 -22 -147 -102 -171 -173 -79 -238 168 -460 389 -349
177 88 217 317 79 454 -74 74 -192 102 -297 68z"/>
<path d="M2463 2784 c-59 -21 -132 -89 -159 -149 -34 -72 -33 -172 2 -243 104
-209 404 -209 508 0 21 41 26 67 26 122 0 90 -29 156 -94 213 -79 69 -186 91
-283 57z"/>
<path d="M3447 2786 c-94 -34 -165 -115 -187 -211 -46 -203 153 -389 353 -331
156 45 243 212 192 367 -25 75 -103 152 -175 173 -65 19 -132 20 -183 2z"/>
</g>
</svg>
